<?xml version="1.0" encoding="UTF-8" standalone="no"?>
<!-- Created with Inkscape (http://www.inkscape.org/) -->

<svg
   version="1.1"
   id="svg1"
   width="382.05066"
   height="230.90533"
   viewBox="0 0 382.05066 230.90533"
   sodipodi:docname="y_box_plot.pdf"
   xmlns:inkscape="http://www.inkscape.org/namespaces/inkscape"
   xmlns:sodipodi="http://sodipodi.sourceforge.net/DTD/sodipodi-0.dtd"
   xmlns="http://www.w3.org/2000/svg"
   xmlns:svg="http://www.w3.org/2000/svg">
  <defs
     id="defs1">
    <clipPath
       clipPathUnits="userSpaceOnUse"
       id="clipPath28">
      <path
         d="M -19.88686,0 H 218.74336 V 125.24757 H -19.88686 Z"
         id="path28" />
    </clipPath>
    <clipPath
       clipPathUnits="userSpaceOnUse"
       id="clipPath30">
      <path
         d="M -19.88686,0 H 218.74336 V 125.24757 H -19.88686 Z"
         id="path30" />
    </clipPath>
  </defs>
  <sodipodi:namedview
     id="namedview1"
     pagecolor="#ffffff"
     bordercolor="#000000"
     borderopacity="0.25"
     inkscape:showpageshadow="2"
     inkscape:pageopacity="0.0"
     inkscape:pagecheckerboard="0"
     inkscape:deskcolor="#d1d1d1">
    <inkscape:page
       x="0"
       y="0"
       inkscape:label="1"
       id="page1"
       width="382.05066"
       height="230.90533"
       margin="0"
       bleed="0" />
  </sodipodi:namedview>
  <g
     id="g1"
     inkscape:groupmode="layer"
     inkscape:label="1">
    <path
       id="path1"
       d="M 0,0 V 125.24757 M 33.19807,0 V 125.24757 M 66.39615,0 V 125.24757 M 99.59424,0 V 125.24757 M 132.79231,0 V 125.24757 M 165.99039,0 V 125.24757 M 199.18848,0 v 125.24757"
       style="fill:none;stroke:#bfbfbf;stroke-width:0.3985;stroke-linecap:butt;stroke-linejoin:miter;stroke-miterlimit:10;stroke-dasharray:none;stroke-opacity:1"
       transform="matrix(1.3333333,0,0,-1.3333333,82.572,183.26133)" />
    <path
       id="path2"
       d="M -19.88686,0 H 218.74336 M -19.88686,25.04951 H 218.74336 M -19.88686,50.09903 H 218.74336 M -19.88686,75.14854 h 238.63022 m -238.63022,25.04952 h 238.63022 m -238.63022,25.04951 h 238.63022"
       style="fill:none;stroke:#bfbfbf;stroke-width:0.3985;stroke-linecap:butt;stroke-linejoin:miter;stroke-miterlimit:10;stroke-dasharray:none;stroke-opacity:1"
       transform="matrix(1.3333333,0,0,-1.3333333,82.572,183.26133)" />
    <path
       id="path3"
       d="M 0,0 V 4.25253 M 33.19807,0 V 4.25253 M 66.39615,0 V 4.25253 M 99.59424,0 V 4.25253 M 132.79231,0 V 4.25253 M 165.99039,0 V 4.25253 M 199.18848,0 V 4.25253 M 0,125.24757 v -4.25256 m 33.19807,4.25256 v -4.25256 m 33.19808,4.25256 v -4.25256 m 33.19809,4.25256 v -4.25256 m 33.19807,4.25256 v -4.25256 m 33.19808,4.25256 v -4.25256 m 33.19809,4.25256 v -4.25256"
       style="fill:none;stroke:#808080;stroke-width:0.19925;stroke-linecap:butt;stroke-linejoin:miter;stroke-miterlimit:10;stroke-dasharray:none;stroke-opacity:1"
       transform="matrix(1.3333333,0,0,-1.3333333,82.572,183.26133)" />
    <path
       id="path4"
       d="m -19.88686,0 h 4.25183 m -4.25183,25.04951 h 4.25183 m -4.25183,25.04952 h 4.25183 m -4.25183,25.04951 h 4.25183 m -4.25183,25.04952 h 4.25183 m -4.25183,25.04951 h 4.25183 M 218.74336,0 h -4.25181 m 4.25181,25.04951 h -4.25181 m 4.25181,25.04952 h -4.25181 m 4.25181,25.04951 h -4.25181 m 4.25181,25.04952 h -4.25181 m 4.25181,25.04951 h -4.25181"
       style="fill:none;stroke:#808080;stroke-width:0.19925;stroke-linecap:butt;stroke-linejoin:miter;stroke-miterlimit:10;stroke-dasharray:none;stroke-opacity:1"
       transform="matrix(1.3333333,0,0,-1.3333333,82.572,183.26133)" />
    <path
       id="path5"
       d="M -19.88686,0 V 125.24757 H 218.74336 V 0 Z"
       style="fill:none;stroke:#000000;stroke-width:0.3985;stroke-linecap:butt;stroke-linejoin:miter;stroke-miterlimit:10;stroke-dasharray:none;stroke-opacity:1"
       transform="matrix(1.3333333,0,0,-1.3333333,82.572,183.26133)" />
    <path
       id="path6"
       d="m 4.5834609,-3.1867812 c 0,-0.796875 -0.046875,-1.59375 -0.3984375,-2.3320313 -0.4570312,-0.9609375 -1.2773437,-1.1132812 -1.6875,-1.1132812 -0.5976562,0 -1.3359375,0.2578125 -1.73437496,1.1835937 -0.328125,0.6914063 -0.375,1.4648438 -0.375,2.2617188 0,0.75 0.046875,1.640625 0.4453125,2.4023437 C 1.2670547,0.02415625 1.9936172,0.223375 2.4858047,0.223375 c 0.5390625,0 1.2890625,-0.2109375 1.734375,-1.16015625 C 4.5365859,-1.6281875 4.5834609,-2.401625 4.5834609,-3.1867812 Z M 2.4858047,7.1875e-4 c -0.3867188,0 -0.984375,-0.24609375 -1.1601563,-1.20703125 -0.1054687,-0.5976562 -0.1054687,-1.5117187 -0.1054687,-2.0976562 0,-0.6445313 0,-1.3007813 0.082031,-1.8398438 0.1875,-1.1835937 0.9257813,-1.265625 1.1835938,-1.265625 0.328125,0 0.984375,0.1757813 1.171875,1.1601563 0.09375,0.5625 0.09375,1.3125 0.09375,1.9453125 0,0.75 0,1.4179687 -0.1054688,2.0625 C 3.4936172,-0.30396875 2.9311172,7.1875e-4 2.4858047,7.1875e-4 Z m 0,0"
       style="fill:#000000;fill-opacity:1;fill-rule:nonzero;stroke:none"
       aria-label="0"
       transform="matrix(1.3333333,0,0,1.3333333,79.252,196.51467)" />
    <path
       id="path7"
       d="m 2.9304063,-6.3742812 c 0,-0.234375 0,-0.2578125 -0.234375,-0.2578125 -0.609375,0.6328125 -1.4882813,0.6328125 -1.80468755,0.6328125 v 0.3164062 c 0.19921875,0 0.78515625,0 1.30078125,-0.2578125 v 5.15625 c 0,0.3515625 -0.035156,0.48046875 -0.9257812,0.48046875 H 0.9499375 V 7.1875e-4 C 1.3015,-0.0344375 2.1569688,-0.0344375 2.5554063,-0.0344375 c 0.3984375,0 1.265625,0 1.6171875,0.03515625 v -0.3046875 H 3.8561875 c -0.9023437,0 -0.9257812,-0.1171875 -0.9257812,-0.48046875 z m 0,0"
       style="fill:#000000;fill-opacity:1;fill-rule:nonzero;stroke:none"
       aria-label="1"
       transform="matrix(1.3333333,0,0,1.3333333,123.51467,196.51467)" />
    <path
       id="path8"
       d="m 1.2646328,-0.761 1.0546875,-1.03125 c 1.5585938,-1.3710937 2.15625,-1.9101562 2.15625,-2.90625 0,-1.1367187 -0.9023437,-1.9335937 -2.1210937,-1.9335937 -1.125,0 -1.85156254,0.9140625 -1.85156254,1.8046875 0,0.5507812 0.4921875,0.5507812 0.52734374,0.5507812 0.1640625,0 0.515625,-0.1171875 0.515625,-0.5273437 0,-0.2578125 -0.1875,-0.515625 -0.5273437,-0.515625 -0.0820313,0 -0.10546879,0 -0.12890629,0.011719 0.22265629,-0.6445312 0.76171879,-1.0195312 1.33593749,-1.0195312 0.9140625,0 1.3359375,0.8085937 1.3359375,1.6289062 0,0.796875 -0.4921875,1.5820313 -1.0429687,2.203125 L 0.60838281,-0.3625625 C 0.50291406,-0.25709375 0.50291406,-0.23365625 0.50291406,7.1875e-4 H 4.1943203 l 0.28125,-1.73437495 H 4.2177578 C 4.1708828,-1.4289687 4.1005703,-0.995375 4.0068203,-0.84303125 3.9365078,-0.761 3.2802578,-0.761 3.0576016,-0.761 Z m 0,0"
       style="fill:#000000;fill-opacity:1;fill-rule:nonzero;stroke:none"
       aria-label="2"
       transform="matrix(1.3333333,0,0,1.3333333,167.77867,196.51467)" />
    <path
       id="path9"
       d="M 2.8957578,-3.5031875 C 3.7043516,-3.7727187 4.2902891,-4.4758437 4.2902891,-5.261 c 0,-0.8203125 -0.8789063,-1.3710937 -1.8398438,-1.3710937 -1.0078125,0 -1.75781249,0.5976562 -1.75781249,1.3476562 0,0.3398438 0.2109375,0.5273438 0.50390629,0.5273438 0.3046875,0 0.5039062,-0.2226563 0.5039062,-0.515625 0,-0.4921875 -0.46875,-0.4921875 -0.609375,-0.4921875 C 1.3957578,-6.2570937 2.0520078,-6.386 2.4152891,-6.386 c 0.4101562,0 0.9492187,0.2226563 0.9492187,1.1132813 0,0.1289062 -0.011719,0.703125 -0.2695312,1.1367187 -0.3046875,0.4804688 -0.6445313,0.515625 -0.890625,0.515625 -0.082031,0.011719 -0.3164063,0.035156 -0.3867188,0.035156 -0.082031,0.011719 -0.1523437,0.023437 -0.1523437,0.1171875 0,0.1171875 0.070312,0.1171875 0.234375,0.1171875 h 0.4453125 c 0.8085937,0 1.1835937,0.6679687 1.1835937,1.6523437 0,1.34765625 -0.6914062,1.640625 -1.125,1.640625 -0.4335937,0 -1.171875,-0.17578125 -1.52343749,-0.76171875 C 1.2316953,-0.761 1.5363828,-0.98365625 1.5363828,-1.3586562 c 0,-0.3632813 -0.2695312,-0.5625 -0.56249999,-0.5625 -0.234375,0 -0.55078125,0.140625 -0.55078125,0.5742187 0,0.9140625 0.92578124,1.5703125 2.00390624,1.5703125 1.21875,0 2.1210938,-0.9140625 2.1210938,-1.921875 0,-0.8203125 -0.6210938,-1.59375 -1.6523438,-1.8046875 z m 0,0"
       style="fill:#000000;fill-opacity:1;fill-rule:nonzero;stroke:none"
       aria-label="3"
       transform="matrix(1.3333333,0,0,1.3333333,212.04133,196.51467)" />
    <path
       id="path10"
       d="m 2.9292031,-1.6399062 v 0.86718745 c 0,0.3515625 -0.023437,0.46875 -0.7617187,0.46875 H 1.9565469 v 0.3046875 c 0.4101562,-0.03515625 0.9375,-0.03515625 1.3476562,-0.03515625 0.421875,0 0.9492188,0 1.359375,0.03515625 v -0.3046875 H 4.4526406 c -0.7382812,0 -0.7617187,-0.1171875 -0.7617187,-0.46875 V -1.6399062 H 4.6870156 V -1.9563125 H 3.6909219 V -6.47975 c 0,-0.1992187 0,-0.2578125 -0.1523438,-0.2578125 -0.09375,0 -0.1171875,0 -0.1992187,0.1171875 l -3.05859378,4.6640625 v 0.3164063 z m 0.058594,-0.3164063 H 0.56201562 L 2.9877969,-5.6711562 Z m 0,0"
       style="fill:#000000;fill-opacity:1;fill-rule:nonzero;stroke:none"
       aria-label="4"
       transform="matrix(1.3333333,0,0,1.3333333,256.30533,196.51467)" />
    <path
       id="path11"
       d="m 4.4772969,-2.0031875 c 0,-1.1835937 -0.8203125,-2.1796875 -1.8984375,-2.1796875 -0.4804688,0 -0.9023438,0.1640625 -1.265625,0.5039063 v -1.9335938 c 0.1992187,0.058594 0.5273437,0.1289063 0.84375,0.1289063 1.2304687,0 1.9335937,-0.9140625 1.9335937,-1.0429688 0,-0.058594 -0.035156,-0.1054687 -0.1054687,-0.1054687 -0.011719,0 -0.035156,0 -0.082031,0.023437 -0.1992187,0.09375 -0.6796875,0.2929687 -1.3476562,0.2929687 -0.3984375,0 -0.8554688,-0.070312 -1.3242188,-0.28125 -0.082031,-0.023437 -0.1054687,-0.023437 -0.1289062,-0.023437 -0.09375,0 -0.09375,0.082031 -0.09375,0.234375 v 2.953125 c 0,0.1757813 0,0.2578125 0.140625,0.2578125 0.070312,0 0.082031,-0.035156 0.1289062,-0.09375 0.1054688,-0.1523437 0.4804688,-0.6914062 1.2773438,-0.6914062 0.5273437,0 0.7734375,0.4570312 0.8554687,0.6328125 0.1523438,0.375 0.1757813,0.7617187 0.1757813,1.2539062 0,0.3515625 0,0.9492188 -0.234375,1.37109375 -0.2460938,0.38671875 -0.609375,0.64453125 -1.0664063,0.64453125 -0.7265625,0 -1.30078123,-0.52734375 -1.46484373,-1.1132812 0.0234375,0.011719 0.0585938,0.011719 0.1640625,0.011719 0.32812503,0 0.50390623,-0.2460937 0.50390623,-0.4804687 0,-0.2460938 -0.1757812,-0.4921875 -0.50390623,-0.4921875 -0.140625,0 -0.48046875,0.070312 -0.48046875,0.5273437 0,0.85546875 0.67968748,1.828125 1.79296878,1.828125 1.1601562,0 2.1796875,-0.9609375 2.1796872,-2.2265628 z m 0,0"
       style="fill:#000000;fill-opacity:1;fill-rule:nonzero;stroke:none"
       aria-label="5"
       transform="matrix(1.3333333,0,0,1.3333333,300.56933,196.51467)" />
    <path
       id="path12"
       d="m 1.3125234,-3.2688125 v -0.234375 c 0,-2.5195312 1.2421875,-2.8828125 1.7460938,-2.8828125 0.234375,0 0.65625,0.058594 0.8789062,0.3984375 -0.1523437,0 -0.5507812,0 -0.5507812,0.4453125 0,0.3164063 0.234375,0.4570313 0.4570312,0.4570313 0.1640625,0 0.4570313,-0.082031 0.4570313,-0.46875 0,-0.5976563 -0.4335938,-1.078125 -1.265625,-1.078125 -1.2773438,0 -2.61328126,1.2890625 -2.61328126,3.4804687 0,2.66015625 1.14843746,3.375 2.07421876,3.375 1.1132812,0 2.0507812,-0.9375 2.0507812,-2.25 0,-1.265625 -0.8789062,-2.2265625 -1.9921875,-2.2265625 -0.6679687,0 -1.0429687,0.5039063 -1.2421875,0.984375 z m 1.1835938,3.2109375 c -0.6210938,0 -0.9257813,-0.59765625 -0.984375,-0.75 -0.1757813,-0.46875 -0.1757813,-1.265625 -0.1757813,-1.4414062 0,-0.7734375 0.3164063,-1.7695313 1.21875,-1.7695313 0.1523438,0 0.609375,0 0.9257813,0.609375 0.1757812,0.375 0.1757812,0.8789063 0.1757812,1.3710938 0,0.4804687 0,0.9726562 -0.1640625,1.33593745 C 3.1875234,-0.10475 2.7304922,-0.057875 2.4961172,-0.057875 Z m 0,0"
       style="fill:#000000;fill-opacity:1;fill-rule:nonzero;stroke:none"
       aria-label="6"
       transform="matrix(1.3333333,0,0,1.3333333,344.832,196.51467)" />
    <path
       id="path13"
       d="m 4.5830234,-3.1862734 c 0,-0.796875 -0.046875,-1.59375 -0.3984375,-2.3320313 -0.4570312,-0.9609375 -1.2773437,-1.1132812 -1.6875,-1.1132812 -0.5976562,0 -1.3359375,0.2578125 -1.73437496,1.1835937 -0.328125,0.6914063 -0.375,1.4648438 -0.375,2.2617188 0,0.75 0.046875,1.640625 0.4453125,2.40234371 0.43359376,0.80859375 1.16015626,1.0078125 1.65234376,1.0078125 0.5390625,0 1.2890625,-0.2109375 1.734375,-1.16015625 C 4.5361484,-1.6276797 4.5830234,-2.4011172 4.5830234,-3.1862734 Z M 2.4853672,0.00122656 c -0.3867188,0 -0.984375,-0.24609375 -1.1601563,-1.20703126 -0.1054687,-0.5976562 -0.1054687,-1.5117187 -0.1054687,-2.0976562 0,-0.6445313 0,-1.3007813 0.082031,-1.8398438 0.1875,-1.1835937 0.9257813,-1.265625 1.1835938,-1.265625 0.328125,0 0.984375,0.1757813 1.171875,1.1601563 0.09375,0.5625 0.09375,1.3125 0.09375,1.9453125 0,0.75 0,1.4179687 -0.1054688,2.0625 -0.1523437,0.93749996 -0.7148437,1.24218746 -1.160156,1.24218746 z m 0,0"
       style="fill:#000000;fill-opacity:1;fill-rule:nonzero;stroke:none"
       aria-label="0"
       transform="matrix(1.3333333,0,0,1.3333333,44.721333,187.54133)" />
    <g
       id="g13"
       aria-label="0.2"
       transform="matrix(1.3333333,0,0,1.3333333,34.390667,154.14267)">
      <path
         id="path14"
         d="m 4.582,-3.1861016 c 0,-0.796875 -0.046875,-1.59375 -0.3984375,-2.3320312 -0.4570312,-0.9609375 -1.2773437,-1.1132813 -1.6875,-1.1132813 -0.5976562,0 -1.3359375,0.2578125 -1.734375,1.1835938 -0.328125,0.6914062 -0.375,1.4648437 -0.375,2.2617187 0,0.75 0.046875,1.640625 0.4453125,2.40234379 0.4335938,0.80859375 1.1601563,1.0078125 1.6523438,1.0078125 0.5390625,0 1.2890625,-0.2109375 1.734375,-1.16015625 C 4.535125,-1.6275078 4.582,-2.4009453 4.582,-3.1861016 Z M 2.4843438,0.00139844 c -0.3867188,0 -0.984375,-0.24609375 -1.1601563,-1.20703124 -0.1054687,-0.5976563 -0.1054687,-1.5117188 -0.1054687,-2.0976563 0,-0.6445312 0,-1.3007812 0.082031,-1.8398437 0.1875,-1.1835938 0.9257813,-1.265625 1.1835938,-1.265625 0.328125,0 0.984375,0.1757812 1.171875,1.1601562 0.09375,0.5625 0.09375,1.3125 0.09375,1.9453125 0,0.75 0,1.4179688 -0.1054688,2.0625 -0.1523437,0.93750004 -0.7148437,1.24218754 -1.160156,1.24218754 z m 0,0"
         style="fill:#000000;fill-opacity:1;fill-rule:nonzero;stroke:none" />
      <path
         id="path15"
         d="m 6.8905938,-0.52594531 c 0,-0.29296875 -0.234375,-0.52734379 -0.5273438,-0.52734379 -0.28125,0 -0.5273437,0.23437504 -0.5273437,0.52734379 0,0.29296875 0.2460937,0.52734375 0.5273437,0.52734375 0.2929688,0 0.5273438,-0.234375 0.5273438,-0.52734375 z m 0,0"
         style="fill:#000000;fill-opacity:1;fill-rule:nonzero;stroke:none" />
      <path
         id="path16"
         d="M 9.0146172,-0.76032031 10.069305,-1.7915703 c 1.558593,-1.3710938 2.15625,-1.9101563 2.15625,-2.90625 0,-1.1367188 -0.902344,-1.9335938 -2.121094,-1.9335938 -1.1250001,0 -1.8515626,0.9140625 -1.8515626,1.8046875 0,0.5507813 0.4921875,0.5507813 0.5273438,0.5507813 0.1640625,0 0.515625,-0.1171875 0.515625,-0.5273438 0,-0.2578125 -0.1875,-0.515625 -0.5273438,-0.515625 -0.082031,0 -0.1054687,0 -0.1289062,0.011719 0.2226562,-0.6445313 0.7617187,-1.0195313 1.3359375,-1.0195313 0.9140623,0 1.3359373,0.8085938 1.3359373,1.6289063 0,0.796875 -0.492187,1.5820312 -1.042969,2.203125 L 8.3583672,-0.36188281 C 8.2528984,-0.25641406 8.2528984,-0.23297656 8.2528984,0.00139844 h 3.6914066 l 0.28125,-1.73437504 h -0.257813 c -0.04687,0.3046875 -0.117187,0.73828129 -0.210937,0.89062504 -0.07031,0.0820313 -0.726563,0.0820313 -0.949219,0.0820313 z m 0,0"
         style="fill:#000000;fill-opacity:1;fill-rule:nonzero;stroke:none" />
    </g>
    <g
       id="g16"
       aria-label="0.4"
       transform="matrix(1.3333333,0,0,1.3333333,34.390667,120.744)">
      <path
         id="path17"
         d="m 4.582,-3.1888594 c 0,-0.796875 -0.046875,-1.59375 -0.3984375,-2.3320312 -0.4570312,-0.9609375 -1.2773437,-1.1132813 -1.6875,-1.1132813 -0.5976562,0 -1.3359375,0.2578125 -1.734375,1.1835938 -0.328125,0.6914062 -0.375,1.4648437 -0.375,2.2617187 0,0.75 0.046875,1.640625 0.4453125,2.40234378 0.4335938,0.80859375 1.1601563,1.0078125 1.6523438,1.0078125 0.5390625,0 1.2890625,-0.2109375 1.734375,-1.16015625 C 4.535125,-1.6302656 4.582,-2.4037031 4.582,-3.1888594 Z m -2.0976562,3.18750003 c -0.3867188,0 -0.984375,-0.24609375 -1.1601563,-1.20703123 -0.1054687,-0.5976563 -0.1054687,-1.5117188 -0.1054687,-2.0976563 0,-0.6445312 0,-1.3007812 0.082031,-1.8398437 0.1875,-1.1835938 0.9257813,-1.265625 1.1835938,-1.265625 0.328125,0 0.984375,0.1757812 1.171875,1.1601562 0.09375,0.5625 0.09375,1.3125 0.09375,1.9453125 0,0.75 0,1.4179688 -0.1054688,2.0625 -0.1523437,0.93750003 -0.7148437,1.24218753 -1.160156,1.24218753 z m 0,0"
         style="fill:#000000;fill-opacity:1;fill-rule:nonzero;stroke:none" />
      <path
         id="path18"
         d="m 6.8905938,-0.52870312 c 0,-0.29296875 -0.234375,-0.52734378 -0.5273438,-0.52734378 -0.28125,0 -0.5273437,0.23437503 -0.5273437,0.52734378 0,0.29296875 0.2460937,0.52734375 0.5273437,0.52734375 0.2929688,0 0.5273438,-0.234375 0.5273438,-0.52734375 z m 0,0"
         style="fill:#000000;fill-opacity:1;fill-rule:nonzero;stroke:none" />
      <path
         id="path19"
         d="m 10.67868,-1.6419844 v 0.86718753 c 0,0.3515625 -0.02344,0.46875 -0.7617191,0.46875 H 9.7060234 v 0.3046875 c 0.4101566,-0.03515625 0.9374996,-0.03515625 1.3476566,-0.03515625 0.421875,0 0.949218,0 1.359375,0.03515625 v -0.3046875 h -0.210938 c -0.738281,0 -0.761719,-0.1171875 -0.761719,-0.46875 V -1.6419844 h 0.996094 v -0.3164062 h -0.996094 v -4.5234375 c 0,-0.1992188 0,-0.2578125 -0.152343,-0.2578125 -0.09375,0 -0.117188,0 -0.199219,0.1171875 l -3.0585938,4.6640625 v 0.3164062 z m 0.05859,-0.3164062 H 8.3114922 l 2.4257808,-3.7148438 z m 0,0"
         style="fill:#000000;fill-opacity:1;fill-rule:nonzero;stroke:none" />
    </g>
    <g
       id="g19"
       aria-label="0.6"
       transform="matrix(1.3333333,0,0,1.3333333,34.390667,87.345333)">
      <path
         id="path20"
         d="m 4.582,-3.1886875 c 0,-0.796875 -0.046875,-1.59375 -0.3984375,-2.3320312 C 3.7265313,-6.4816562 2.9062188,-6.634 2.4960625,-6.634 c -0.5976562,0 -1.3359375,0.2578125 -1.734375,1.1835938 -0.328125,0.6914062 -0.375,1.4648437 -0.375,2.2617187 0,0.75 0.046875,1.640625 0.4453125,2.40234375 0.4335938,0.80859375 1.1601563,1.0078125 1.6523438,1.0078125 0.5390625,0 1.2890625,-0.2109375 1.734375,-1.16015625 C 4.535125,-1.6300937 4.582,-2.4035312 4.582,-3.1886875 Z m -2.0976562,3.1875 c -0.3867188,0 -0.984375,-0.24609375 -1.1601563,-1.2070312 C 1.2187188,-1.805875 1.2187188,-2.7199375 1.2187188,-3.305875 c 0,-0.6445312 0,-1.3007812 0.082031,-1.8398437 0.1875,-1.1835938 0.9257813,-1.265625 1.1835938,-1.265625 0.328125,0 0.984375,0.1757812 1.171875,1.1601562 0.09375,0.5625 0.09375,1.3125 0.09375,1.9453125 0,0.75 0,1.4179688 -0.1054688,2.0625 -0.1523437,0.9375 -0.7148437,1.2421875 -1.160156,1.2421875 z m 0,0"
         style="fill:#000000;fill-opacity:1;fill-rule:nonzero;stroke:none" />
      <path
         id="path21"
         d="M 6.8905938,-0.52853125 C 6.8905938,-0.8215 6.6562188,-1.055875 6.36325,-1.055875 c -0.28125,0 -0.5273437,0.234375 -0.5273437,0.52734375 0,0.29296875 0.2460937,0.52734375 0.5273437,0.52734375 0.2929688,0 0.5273438,-0.234375 0.5273438,-0.52734375 z m 0,0"
         style="fill:#000000;fill-opacity:1;fill-rule:nonzero;stroke:none" />
      <path
         id="path22"
         d="m 9.0614922,-3.2707187 v -0.234375 c 0,-2.5195313 1.2421878,-2.8828125 1.7460938,-2.8828125 0.234375,0 0.65625,0.058594 0.878906,0.3984375 -0.152344,0 -0.550781,0 -0.550781,0.4453125 0,0.3164062 0.234375,0.4570312 0.457031,0.4570312 0.164063,0 0.457031,-0.082031 0.457031,-0.46875 0,-0.5976562 -0.433593,-1.078125 -1.265625,-1.078125 -1.2773433,0 -2.6132808,1.2890625 -2.6132808,3.4804688 0,2.6601562 1.1484375,3.37499995 2.0742188,3.37499995 1.113281,0 2.050781,-0.9375 2.050781,-2.24999995 0,-1.265625 -0.878906,-2.2265625 -1.992187,-2.2265625 -0.6679691,0 -1.0429691,0.5039062 -1.2421878,0.984375 z m 1.1835938,3.21093745 c -0.6210938,0 -0.9257813,-0.59765625 -0.9843751,-0.75 C 9.0849297,-1.2785312 9.0849297,-2.0754062 9.0849297,-2.2511875 c 0,-0.7734375 0.3164062,-1.7695312 1.2187503,-1.7695312 0.152343,0 0.609375,0 0.925781,0.609375 0.175781,0.375 0.175781,0.8789062 0.175781,1.3710937 0,0.4804688 0,0.9726563 -0.164062,1.3359375 -0.304688,0.59765625 -0.761719,0.64453125 -0.996094,0.64453125 z m 0,0"
         style="fill:#000000;fill-opacity:1;fill-rule:nonzero;stroke:none" />
    </g>
    <g
       id="g22"
       aria-label="0.8"
       transform="matrix(1.3333333,0,0,1.3333333,34.390667,53.945333)">
      <path
         id="path23"
         d="m 4.582,-3.1875156 c 0,-0.796875 -0.046875,-1.59375 -0.3984375,-2.3320313 -0.4570312,-0.9609375 -1.2773437,-1.1132812 -1.6875,-1.1132812 -0.5976562,0 -1.3359375,0.2578125 -1.734375,1.1835937 -0.328125,0.6914063 -0.375,1.4648438 -0.375,2.2617188 0,0.75 0.046875,1.640625 0.4453125,2.40234373 0.4335938,0.80859375 1.1601563,1.0078125 1.6523438,1.0078125 0.5390625,0 1.2890625,-0.2109375 1.734375,-1.16015625 C 4.535125,-1.6289219 4.582,-2.4023594 4.582,-3.1875156 Z M 2.4843438,-1.5625e-5 c -0.3867188,0 -0.984375,-0.246093745 -1.1601563,-1.207031275 -0.1054687,-0.5976562 -0.1054687,-1.5117187 -0.1054687,-2.0976562 0,-0.6445313 0,-1.3007813 0.082031,-1.8398438 0.1875,-1.1835937 0.9257813,-1.265625 1.1835938,-1.265625 0.328125,0 0.984375,0.1757813 1.171875,1.1601563 0.09375,0.5625 0.09375,1.3125 0.09375,1.9453125 0,0.75 0,1.4179687 -0.1054688,2.0625 C 3.4921563,-0.30470312 2.9296563,-1.5625e-5 2.4843438,-1.5625e-5 Z m 0,0"
         style="fill:#000000;fill-opacity:1;fill-rule:nonzero;stroke:none" />
      <path
         id="path24"
         d="m 6.8905938,-0.52735937 c 0,-0.29296875 -0.234375,-0.52734373 -0.5273438,-0.52734373 -0.28125,0 -0.5273437,0.23437498 -0.5273437,0.52734373 0,0.29296875 0.2460937,0.527343745 0.5273437,0.527343745 0.2929688,0 0.5273438,-0.234374995 0.5273438,-0.527343745 z m 0,0"
         style="fill:#000000;fill-opacity:1;fill-rule:nonzero;stroke:none" />
      <path
         id="path25"
         d="m 9.3778984,-4.5468906 c -0.46875,-0.3046875 -0.5039062,-0.6445313 -0.5039062,-0.8085938 0,-0.609375 0.6445312,-1.03125 1.3593748,-1.03125 0.726563,0 1.359375,0.515625 1.359375,1.2421875 0,0.5625 -0.386719,1.0429688 -0.984375,1.3945313 z m 1.4531246,0.9375 c 0.714844,-0.3632813 1.207032,-0.8789063 1.207032,-1.5351563 0,-0.9257812 -0.890625,-1.4882812 -1.792969,-1.4882812 -0.9960938,0 -1.8046876,0.7382812 -1.8046876,1.6640625 0,0.1757812 0.011719,0.6210937 0.4335938,1.0898437 0.1054687,0.1289063 0.4804687,0.375 0.7265625,0.5390625 -0.5742188,0.2929688 -1.4296875,0.84375 -1.4296875,1.8398438 0,1.05468748 1.0078125,1.72265623 2.0624998,1.72265623 1.125,0 2.0625,-0.83203125 2.0625,-1.89843753 0,-0.3515625 -0.105469,-0.8085937 -0.480469,-1.21875 -0.1875,-0.2109375 -0.351562,-0.3164062 -0.984375,-0.7148437 z m -0.9960933,0.421875 1.2187503,0.7734375 c 0.28125,0.1875 0.75,0.4921875 0.75,1.1015625 0,0.73828123 -0.75,1.25390623 -1.558594,1.25390623 -0.8671876,0 -1.5820313,-0.62109375 -1.5820313,-1.44140623 0,-0.5859375 0.3164062,-1.21875 1.171875,-1.6875 z m 0,0"
         style="fill:#000000;fill-opacity:1;fill-rule:nonzero;stroke:none" />
    </g>
    <path
       id="path26"
       d="m 2.9306797,-6.3748437 c 0,-0.234375 0,-0.2578125 -0.234375,-0.2578125 -0.609375,0.6328125 -1.4882813,0.6328125 -1.80468751,0.6328125 v 0.3164062 c 0.19921871,0 0.78515621,0 1.30078121,-0.2578125 V -0.785 c 0,0.3515625 -0.035156,0.48046875 -0.9257812,0.48046875 H 0.95021094 V 1.5625e-4 C 1.3017734,-0.035 2.1572422,-0.035 2.5556797,-0.035 c 0.3984375,0 1.265625,0 1.6171875,0.03515625 v -0.3046875 H 3.8564609 c -0.9023437,0 -0.9257812,-0.1171875 -0.9257812,-0.48046875 z m 0,0"
       style="fill:#000000;fill-opacity:1;fill-rule:nonzero;stroke:none"
       aria-label="1"
       transform="matrix(1.3333333,0,0,1.3333333,44.721333,20.546667)" />
    <path
       id="path27"
       d="m 0,25.04951 0.33197,-5.9e-4 H 0.66396 0.99594 1.32791 1.6599 1.99188 2.32385 2.65584 2.98782 3.3198 3.65178 3.98376 4.31575 4.64772 4.9797 5.31169 5.64366 5.97565 6.30763 6.6396 6.97159 7.30357 7.63554 7.96753 8.29951 8.6315 h 0.33197 0.33199 0.33198 0.33197 0.33199 0.33198 0.33197 0.33199 0.33198 0.33198 0.33198 0.33198 0.33199 0.33197 0.33198 l 0.33199,2.4e-4 0.33197,0.25104 0.33199,0.72173 0.33198,0.99019 0.33197,1.03506 0.33199,1.02126 0.33198,1.00064 0.33199,0.97966 0.33197,0.95796 0.33199,0.93718 0.33198,0.91649 0.33197,0.897 0.33199,0.87788 0.33198,0.85885 0.33197,0.84017 0.33199,0.822 0.33198,0.80386 0.33197,0.78599 0.33199,0.76873 0.33198,0.75096 0.33199,0.73521 0.33197,0.7204 0.33199,0.70486 0.33198,0.6896 0.33197,0.67446 0.33198,0.65992 0.33199,0.64546 0.33197,0.63132 0.33199,0.61731 0.33198,0.60415 0.33197,0.59091 0.33199,0.57793 0.33198,0.56537 0.33199,0.55322 0.33197,0.54126 0.33199,0.52944 0.33198,0.51785 0.33197,0.50606 0.33199,0.49589 0.33198,0.4848 0.33197,0.47416 0.33199,0.46379 0.33198,0.4537 0.33197,0.44399 0.33199,0.43413 0.33198,0.42414 0.33199,0.41574 0.33197,0.40672 0.33199,0.39771 0.33198,0.38899 0.33197,0.38057 0.33198,0.37209 0.33199,0.36432 0.33197,0.35624 0.33199,0.34841 0.33198,0.34087 0.33199,0.3336 0.33197,0.32597 0.33198,0.31905 0.33199,0.31233 0.33197,0.30539 0.33199,0.29872 0.33198,0.2923 0.33197,0.28605 0.33199,0.27971 0.33198,0.27358 0.33197,0.26783 0.33199,0.26183 0.33198,0.25629 0.33199,0.25059 0.33197,0.2453 0.33198,0.23998 0.33199,0.23442 0.33197,0.22967 0.33199,0.22452 0.33198,0.21979 0.33197,0.21504 0.33198,0.21024 0.33199,0.20578 0.33197,0.20112 0.33199,0.19696 0.33198,0.19255 0.33199,0.18849 0.33197,0.18442 0.33198,0.18039 0.33199,0.17635 0.33197,0.17267 0.33199,0.1689 0.33198,0.16527 0.33197,0.16159 0.33199,0.15801 0.33198,0.15462 0.33197,0.15134 0.33199,0.14807 0.33198,0.14488 0.33199,0.14162 0.33197,0.13867 0.33198,0.1357 0.33199,0.1327 0.33197,0.12987 0.33199,0.12688 0.33198,0.12427 0.33197,0.12159 0.33198,0.11891 0.332,0.11635 0.33198,0.1137 0.33197,0.11135 0.33198,0.10897 0.33199,0.10667 0.33197,0.10442 0.33198,0.10208 0.33199,0.10001 0.33197,0.09782 0.33199,0.09573 0.33198,0.09365 0.33197,0.09159 0.33199,0.08962 0.33198,0.08766 0.33199,0.08565 0.33197,0.08389 0.33198,0.08206 0.33199,0.08028 0.33197,0.07855 0.33198,0.07685 0.33199,0.07519 0.33197,0.07353 0.33199,0.07184 0.33198,0.07033 0.33197,0.06883 0.33198,0.06734 0.332,0.06587 0.33198,0.06447 0.33197,0.06308 0.33198,0.06169 0.33199,0.06033 0.33197,0.05884 0.33199,0.05765 0.33198,0.05647 0.33197,0.0553 0.33199,0.05409 0.33198,0.0529 0.33197,0.29108 0.33199,0.76349 0.33198,1.03394 0.33199,1.07792 0.33197,1.06934 0.33198,1.04851 0.33199,1.02585 0.33197,1.00356 0.33199,0.98156 0.33198,0.96016 0.33197,0.93968 0.33199,0.91879 0.33198,0.89888 0.33199,0.87997 0.33196,0.86005 0.332,0.84201 0.33198,0.8233 0.33197,0.8051 0.33198,0.78754 0.33199,0.77088 0.33197,0.75434 0.33199,0.73731 0.33198,0.72191 0.33197,0.70538 0.33199,0.69096 0.33198,0.67499 0.33199,0.66129 0.33197,0.64689 0.33198,0.63237 0.33199,0.61861 0.33197,0.60506 0.33198,0.59208 0.33199,0.57927 0.33197,0.56682 0.33199,0.55452 0.33198,0.54242 0.33197,0.53049 0.33199,0.51907 0.33198,0.50772 0.33199,0.49672 0.33197,0.48575 0.33199,0.47566 0.33198,0.46489 0.33197,0.45438 0.33198,0.44496 0.33199,0.43507 0.33197,0.42612 0.33199,0.41632 0.33198,0.4072 0.33199,0.39862 0.33197,0.3898 0.33198,0.38136 0.33199,0.3732 0.33197,0.3651 0.33198,0.35681 0.33199,0.34947 0.33197,0.34163 0.33198,0.3344 0.33199,0.32711 0.33197,0.31978 0.33199,0.31308 0.33198,0.30622 0.33199,0.2996 0.33197,0.2932 0.33198,0.28685 0.33199,0.2805 0.33197,0.27437 0.33199,0.26845 0.33198,0.26187 0.33197,0.25702 0.33198,0.25139 0.33199,0.2458 0.33197,0.24054 0.33199,0.23526 0.33198,0.23032 0.33199,0.2253 0.33197,0.2204 0.33198,0.21548 0.33199,0.21092 0.33197,0.20636 0.33198,0.20186 0.33199,0.19751 0.33197,0.19314 0.33198,0.18889 0.33199,0.18491 0.33197,0.18063 0.33199,0.17693 0.33198,0.17303 0.33199,0.16934 0.33197,0.16568 0.33198,0.16205 0.33199,0.15857 0.33197,0.155 0.33199,0.15158 0.33198,0.14847 0.33197,0.14522 0.33198,0.1421 0.33199,0.13899 0.33198,0.13588 0.33198,0.13304 0.33198,0.13013 0.33199,0.12732 0.33197,0.12453 0.33198,0.12182 0.33199,0.11919 0.33197,0.11658 0.33198,0.11381 0.33199,0.11157 0.33197,0.10917 0.33199,0.10676 0.33198,0.10446 0.33199,0.10221 0.33197,0.1 0.33198,0.0978 0.33199,0.0956 0.33197,0.0936 0.33198,0.0916 0.33199,0.0896 0.33197,0.0876 0.33199,0.0857 0.33198,0.0839 0.33197,0.0819 0.33199,0.0803 0.33198,0.0785 0.33198,0.0768 0.33198,0.0752 0.33198,0.0734 0.33199,0.072 0.33197,0.0703 0.33198,0.0688 0.33199,0.0672 0.33197,0.0658 0.33198,0.0645 0.33199,0.063 0.33197,0.0617 0.33199,0.0603 0.33198,0.059 0.33199,0.0577 0.33197,0.0565 0.33198,0.0553 0.33199,0.054 0.33197,0.0528 0.33198,-0.25113 0.33199,-0.83768 0.33197,-1.38403 0.33199,-1.70155 0.33198,-1.75428 0.33199,-1.72791 0.33197,-1.6919 0.33198,-1.65506 0.33198,-1.61931 0.33198,-1.58475 0.33198,-1.54886 0.33199,-1.51524 0.33197,-1.48278 0.33198,-1.45094 0.33199,-1.41961 0.33197,-1.38965 0.33198,-1.3556 0.33199,-1.32856 0.33199,-1.29964 0.33197,-1.27017 0.33198,-1.24362 0.33199,-1.21511 0.33197,-1.19073 0.33198,-1.16192 0.33199,-1.13749 0.33197,-1.11448 0.33198,-1.08828 0.33199,-1.0654 0.33197,-1.04235 0.33199,-1.0185 0.33198,-0.99687 0.33199,-0.97571 0.33197,-0.9541 0.33198,-0.93234 0.33198,-0.91296 0.33198,-0.89263 0.33198,-0.87254 0.33199,-0.85379 0.33197,-0.83542 0.33198,-0.81711 0.33199,-0.79945 0.33197,-0.78204 0.33198,-0.76575 0.33199,-0.74846 0.33199,-0.73164 0.33197,-0.71701 0.33198,-0.69993 0.33199,-0.68577 0.33197,-0.67005 0.33198,-0.65571 0.33199,-0.64143 0.33197,-0.62819 0.33198,-0.61361 0.33199,-0.60018 0.33198,-0.58724 0.33198,-0.57483 0.33198,-0.56235 0.33199,-0.5507 0.33197,-0.53749 0.33198,-0.52585 0.33198,-0.51555 0.33198,-0.50278 0.33198,-0.49293 0.33199,-0.48113 0.33197,-0.47099 0.33198,-0.46088 0.33199,-0.45088 0.33198,-0.44125 0.33197,-0.43144 0.33199,-0.42209 0.33199,-0.4128 0.33197,-0.40391 0.33198,-0.3953 0.33199,-0.38676 0.33197,-0.3779 0.33198,-0.3696 0.33199,-0.36185 0.33197,-0.35351 0.33198,-0.34655 0.33199,-0.33857 0.33198,-0.33151 0.33198,-0.32399 0.33198,-0.31699 0.33199,-0.30998 0.33197,-0.30364 0.33198,-0.29662 0.33198,-0.28997 0.33198,-0.28436 0.33198,-0.27767 0.33199,-0.27144 0.33197,-0.26553 0.33198,-0.26018 0.33199,-0.2541 0.33198,-0.24903 0.33198,-0.24334 0.33198,-0.23783 0.33199,-0.23291 0.33197,-0.22763 0.33198,-0.22282 0.33199,-0.21782 0.33197,-0.21306 0.33198,-0.209 0.33199,-0.20389 0.33198,-0.19984 0.33197,-0.19511 0.33199,-0.19098 0.33198,-0.18699 0.33198,-0.18281 0.33198,-0.17868 0.33199,-0.17496 0.33197,-0.17096 0.33198,-0.16723 0.33198,-0.16386 0.33198,-0.16003 0.33198,-0.15674 0.33199,-0.15315 0.33198,-0.14978 0.33197,-0.14654 0.33199,-0.14359 0.33199,-0.14047 0.33197,-0.13716 0.33198,-0.1342 0.33199,-0.13126 0.33197,-0.12842 0.33198,-0.12562 0.33199,-0.1229 0.33197,-0.12022 0.33198,-0.11759 0.33199,-0.11503 0.33198,-0.11255 0.33197,-0.11008 0.33199,-0.10791 0.33199,-0.10545 0.33197,-0.10327 0.33198,-0.10095 0.33199,-0.09862 0.33197,-0.09647 0.33198,-0.09436 0.33198,-0.0923 0.332,-0.0903 0.33196,-0.08856 0.33199,-0.08641 0.33198,-0.08472 0.33197,-0.08269 0.33199,-0.08087 0.33199,-0.07913 0.33197,-0.07739 0.33198,-0.07572 0.33199,-0.07406 0.33197,-0.07244 0.33198,-0.07087 0.33199,-0.06936 0.33198,-0.06808 0.33197,-0.06656 0.33199,-0.06489 0.33198,-0.06349 0.33197,-0.0621 0.33199,-0.06074 0.33199,-0.05945 0.33197,-0.05815 0.33198,-0.05686 0.33199,-0.05561 0.33197,-0.05445 0.33198,-0.05324 0.33199,-0.05207 0.33199,-0.05093 0.33196,-0.05002 0.33199,-0.04874 0.33198,-0.04771 0.33197,-0.04662 0.33199,-0.04564 0.33199,-0.04487 0.33197,-0.04369 0.33198,-0.04273 0.33199,-0.04178 0.33197,-0.04087 0.33198,-0.03998 0.33199,-0.03911 0.33198,-0.03827 0.33197,-0.03744 0.33199,-0.03659 0.33198,-0.03603 0.33197,-0.03503 0.33199,-0.03428 0.33199,-0.03352 0.33197,-0.03278 0.33198,-0.0321 0.33199,-0.03161 0.33198,-0.03071 0.33197,-0.03001 0.33199,-0.0294 0.33199,-0.02872 0.33196,-0.02812 0.33199,-0.0275 0.33198,-0.02692 0.33197,-0.0263 0.33199,-0.02574 0.33199,-0.0252 0.33197,-0.02464 0.33198,-0.02409 0.33199,-0.02358 0.33198,-0.02326 0.33197,-0.02257 0.33199,-0.02208 0.33198,-0.02156 0.33197,-0.02112 0.33199,-0.02067 0.33198,-0.02042 0.33198,-0.01976 0.33198,-0.01934 0.33199,-0.01893 0.33197,-0.0185 0.33198,-0.01808 0.33199,-0.01773 0.33198,-0.01727 0.33197,-0.01715 0.33199,-0.01656 0.33199,-0.01622 0.33196,-0.01584 0.33199,-0.01552 0.33198,-0.01518 0.33197,-0.01483 0.33199,-0.01453 0.33199,-0.01419 0.33197,-0.0139 0.33198,-0.01358 0.33199,-0.0133 0.33198,-0.013 0.33197,-0.01273 0.33199,-0.01268 0.33198,-0.01216 0.33197,-0.01192 0.33199,-0.01166 0.33199,-0.01138 0.33197,-0.01132 0.33198,-0.01092 0.33199,-0.01064 0.33198,-0.01044 0.33197,-0.01021 0.33199,-0.01 0.33198,-0.0098 0.33197,-0.0095 0.33199,-0.0093 0.33199,-0.0091 0.33196,-0.0089 0.33199,-0.0088 0.33199,-0.0085 0.33196,-0.0084 0.33199,-0.0082 0.33199,-0.008 0.33198,-0.0081 0.33197,-0.0079 0.33199,-0.0075 0.33198,-0.0073 0.33197,-0.0072 0.33199,-0.007 0.33198,-0.0069 0.33197,-0.0067 0.33199,-0.0065 0.33199,-0.0064 0.33197,-0.0063 0.33198,-0.0062 0.33199,-0.006 0.33198,-0.0059 0.33197,-0.0058 0.33199,-0.0056 0.33198,-0.0057 0.33197,-0.0054 0.33199,-0.0053 0.33199,-0.0051 0.33196,-0.005 0.33199,-0.0049 0.33199,-0.0048 0.33196,-0.0047 0.33199,-0.0048"
       style="fill:none;stroke:#ff0000;stroke-width:1.49442;stroke-linecap:butt;stroke-linejoin:miter;stroke-miterlimit:10;stroke-dasharray:none;stroke-opacity:1"
       transform="matrix(1.3333333,0,0,-1.3333333,82.572,183.26133)"
       clip-path="url(#clipPath28)" />
    <path
       id="path29"
       d="M 0,75.14854 H 0.33197 0.66396 0.99594 1.32791 1.6599 1.99188 2.32385 2.65584 2.98782 3.3198 3.65178 3.98376 4.31575 4.64772 4.9797 5.31169 5.64366 5.97565 6.30763 6.6396 6.97159 7.30357 7.63554 7.96753 8.29951 8.6315 h 0.33197 0.33199 0.33198 0.33197 0.33199 0.33198 0.33197 0.33199 0.33198 0.33198 0.33198 0.33198 0.33199 0.33197 0.33198 0.33199 0.33197 0.33199 0.33198 0.33197 0.33199 0.33198 0.33199 0.33197 0.33199 0.33198 0.33197 0.33199 0.33198 0.33197 0.33199 0.33198 0.33197 0.33199 0.33198 0.33199 0.33197 0.33199 0.33198 0.33197 0.33198 0.33199 0.33197 0.33199 0.33198 0.33197 0.33199 0.33198 0.33199 0.33197 0.33199 0.33198 0.33197 0.33199 0.33198 0.33197 0.33199 0.33198 0.33197 0.33199 0.33198 0.33199 0.33197 0.33199 0.33198 0.33197 0.33198 0.33199 0.33197 0.33199 0.33198 0.33199 0.33197 0.33198 0.33199 0.33197 0.33199 0.33198 0.33197 0.33199 0.33198 0.33197 0.33199 0.33198 0.33199 0.33197 0.33198 0.33199 0.33197 0.33199 0.33198 0.33197 0.33198 0.33199 0.33197 0.33199 0.33198 0.33199 0.33197 0.33198 0.33199 0.33197 0.33199 0.33198 0.33197 0.33199 0.33198 0.33197 0.33199 0.33198 0.33199 0.33197 0.33198 0.33199 0.33197 0.33199 0.33198 0.33197 0.33198 0.332 0.33198 0.33197 0.33198 0.33199 0.33197 0.33198 0.33199 0.33197 0.33199 0.33198 0.33197 0.33199 0.33198 0.33199 0.33197 0.33198 0.33199 0.33197 0.33198 0.33199 0.33197 0.33199 0.33198 0.33197 0.33198 0.332 0.33198 0.33197 0.33198 0.33199 0.33197 0.33199 0.33198 0.33197 0.33199 l 0.33198,50.09903 h 0.33197 0.33199 0.33198 0.33199 0.33197 0.33198 0.33199 0.33197 0.33199 0.33198 0.33197 0.33199 0.33198 0.33199 0.33196 0.332 0.33198 0.33197 0.33198 0.33199 0.33197 0.33199 0.33198 0.33197 0.33199 0.33198 0.33199 0.33197 0.33198 0.33199 0.33197 0.33198 0.33199 0.33197 0.33199 0.33198 0.33197 0.33199 0.33198 0.33199 0.33197 0.33199 0.33198 0.33197 0.33198 0.33199 0.33197 0.33199 0.33198 0.33199 0.33197 0.33198 0.33199 0.33197 0.33198 0.33199 0.33197 0.33198 0.33199 0.33197 0.33199 0.33198 0.33199 0.33197 0.33198 0.33199 0.33197 0.33199 0.33198 0.33197 0.33198 0.33199 0.33197 0.33199 0.33198 0.33199 0.33197 0.33198 0.33199 0.33197 0.33198 0.33199 0.33197 0.33198 0.33199 0.33197 0.33199 0.33198 0.33199 0.33197 0.33198 0.33199 0.33197 0.33199 0.33198 0.33197 0.33198 0.33199 0.33198 0.33198 0.33198 0.33199 0.33197 0.33198 0.33199 0.33197 0.33198 0.33199 0.33197 0.33199 0.33198 0.33199 0.33197 0.33198 0.33199 0.33197 0.33198 0.33199 0.33197 0.33199 0.33198 0.33197 0.33199 0.33198 0.33198 0.33198 0.33198 0.33199 0.33197 0.33198 0.33199 0.33197 0.33198 0.33199 0.33197 0.33199 0.33198 0.33199 0.33197 0.33198 0.33199 l 0.33197,-87.67331 h 0.33198 0.33199 0.33197 0.33199 0.33198 0.33199 0.33197 0.33198 0.33198 0.33198 0.33198 0.33199 0.33197 0.33198 0.33199 0.33197 0.33198 0.33199 0.33199 0.33197 0.33198 0.33199 0.33197 0.33198 0.33199 0.33197 0.33198 0.33199 0.33197 0.33199 0.33198 0.33199 0.33197 0.33198 0.33198 0.33198 0.33198 0.33199 0.33197 0.33198 0.33199 0.33197 0.33198 0.33199 0.33199 0.33197 0.33198 0.33199 0.33197 0.33198 0.33199 0.33197 0.33198 0.33199 0.33198 0.33198 0.33198 0.33199 0.33197 0.33198 0.33198 0.33198 0.33198 0.33199 0.33197 0.33198 0.33199 0.33198 0.33197 0.33199 0.33199 0.33197 0.33198 0.33199 0.33197 0.33198 0.33199 0.33197 0.33198 0.33199 0.33198 0.33198 0.33198 0.33199 0.33197 0.33198 0.33198 0.33198 0.33198 0.33199 0.33197 0.33198 0.33199 0.33198 0.33198 0.33198 0.33199 0.33197 0.33198 0.33199 0.33197 0.33198 0.33199 0.33198 0.33197 0.33199 0.33198 0.33198 0.33198 0.33199 0.33197 0.33198 0.33198 0.33198 0.33198 0.33199 0.33198 0.33197 0.33199 0.33199 0.33197 0.33198 0.33199 0.33197 0.33198 0.33199 0.33197 0.33198 0.33199 0.33198 0.33197 0.33199 0.33199 0.33197 0.33198 0.33199 0.33197 0.33198 0.33198 0.332 0.33196 0.33199 0.33198 0.33197 0.33199 0.33199 0.33197 0.33198 0.33199 0.33197 0.33198 0.33199 0.33198 0.33197 0.33199 0.33198 0.33197 0.33199 0.33199 0.33197 0.33198 0.33199 0.33197 0.33198 0.33199 0.33199 0.33196 0.33199 0.33198 0.33197 0.33199 0.33199 0.33197 0.33198 0.33199 0.33197 0.33198 0.33199 0.33198 0.33197 0.33199 0.33198 0.33197 0.33199 0.33199 0.33197 0.33198 0.33199 0.33198 0.33197 0.33199 0.33199 0.33196 0.33199 0.33198 0.33197 0.33199 0.33199 0.33197 0.33198 0.33199 0.33198 0.33197 0.33199 0.33198 0.33197 0.33199 0.33198 0.33198 0.33198 0.33199 0.33197 0.33198 0.33199 0.33198 0.33197 0.33199 0.33199 0.33196 0.33199 0.33198 0.33197 0.33199 0.33199 0.33197 0.33198 0.33199 0.33198 0.33197 0.33199 0.33198 0.33197 0.33199 0.33199 0.33197 0.33198 0.33199 0.33198 0.33197 0.33199 0.33198 0.33197 0.33199 0.33199 0.33196 0.33199 0.33199 0.33196 0.33199 0.33199 0.33198 0.33197 0.33199 0.33198 0.33197 0.33199 0.33198 0.33197 0.33199 0.33199 0.33197 0.33198 0.33199 0.33198 0.33197 0.33199 0.33198 0.33197 0.33199 0.33199 0.33196 0.33199 0.33199 0.33196 0.33199"
       style="fill:none;stroke:#000000;stroke-width:1.49442;stroke-linecap:butt;stroke-linejoin:miter;stroke-miterlimit:10;stroke-dasharray:2.98883, 2.98883;stroke-dashoffset:0;stroke-opacity:1"
       transform="matrix(1.3333333,0,0,-1.3333333,82.572,183.26133)"
       clip-path="url(#clipPath30)" />
    <g
       id="g30"
       aria-label="t[s]"
       transform="matrix(1.3333333,0,0,1.3333333,204.22,215.59733)">
      <path
         id="path31"
         d="m 2.0498438,-3.9841328 h 0.9375 c 0.1992187,0 0.3046875,0 0.3046875,-0.1992188 0,-0.1054687 -0.1054688,-0.1054687 -0.28125,-0.1054687 H 2.131875 c 0.3632813,-1.4179688 0.4101563,-1.6171875 0.4101563,-1.6757813 0,-0.1757812 -0.1171875,-0.2695312 -0.2929688,-0.2695312 -0.023437,0 -0.3046875,0.011719 -0.3984375,0.3515625 l -0.3867187,1.59375 H 0.52640625 c -0.19921875,0 -0.29296875,0 -0.29296875,0.1875 0,0.1171875 0.0703125,0.1171875 0.26953125,0.1171875 H 1.381875 c -0.71484375,2.8242187 -0.75,2.99999999 -0.75,3.17578124 0,0.5390625 0.375,0.9140625 0.9140625,0.9140625 1.0078125,0 1.5820313,-1.45312504 1.5820313,-1.53515624 0,-0.09375 -0.082031,-0.09375 -0.1171875,-0.09375 -0.09375,0 -0.1054688,0.023437 -0.1523438,0.140625 -0.4335937,1.03124999 -0.9609375,1.27734374 -1.3007812,1.27734374 -0.1992188,0 -0.3046875,-0.12890625 -0.3046875,-0.45703125 0,-0.24609375 0.023437,-0.31640625 0.058594,-0.48046879 z m 0,0"
         style="fill:#000000;fill-opacity:1;fill-rule:nonzero;stroke:none" />
      <path
         id="path32"
         d="M 9.4619531,2.4963359 V 2.0978984 H 8.4892969 V -7.0778828 H 9.4619531 V -7.4763203 H 8.0908594 v 9.9726562 z m 2.2968749,-4.4296875 c 0.222656,0.035156 1.03125,0.1992188 1.03125,0.9140625 0,0.51562504 -0.351562,0.91406254 -1.125,0.91406254 -0.832031,0 -1.195312,-0.57421875 -1.382812,-1.41796874 -0.03516,-0.1289063 -0.03516,-0.1757813 -0.140625,-0.1757813 -0.128907,0 -0.128907,0.070312 -0.128907,0.2578125 v 1.31250004 c 0,0.1640625 0,0.234375 0.105469,0.234375 0.05859,0 0.07031,0 0.257813,-0.19921875 0.01172,-0.01171875 0.01172,-0.03515625 0.199218,-0.22265625 0.433594,0.421875 0.878907,0.421875 1.089844,0.421875 1.148438,0 1.605469,-0.66796875 1.605469,-1.38281254 0,-0.5273437 -0.292969,-0.8203125 -0.421875,-0.9492187 -0.328125,-0.3164063 -0.714844,-0.3984375 -1.136719,-0.46875 -0.550781,-0.1171875 -1.21875,-0.2460938 -1.21875,-0.8203125 0,-0.3515625 0.257813,-0.7617188 1.113281,-0.7617188 1.101563,0 1.148438,0.9023438 1.171875,1.2070313 0,0.09375 0.09375,0.09375 0.117188,0.09375 0.128906,0 0.128906,-0.046875 0.128906,-0.2460938 v -0.9960937 c 0,-0.1757813 0,-0.2460938 -0.117187,-0.2460938 -0.04687,0 -0.07031,0 -0.199219,0.1171875 -0.02344,0.046875 -0.128906,0.1289063 -0.164063,0.1640625 -0.375,-0.28125 -0.785156,-0.28125 -0.9375,-0.28125 -1.21875,0 -1.59375,0.6679688 -1.59375,1.2304688 0,0.3398437 0.164063,0.6210937 0.433594,0.84375 0.316406,0.2578125 0.597656,0.3164062 1.3125,0.4570312 z m 3.439453,-5.5429687 h -1.359375 v 0.3984375 h 0.960938 v 9.1757812 h -0.960938 v 0.3984375 h 1.359375 z m 0,0"
         style="fill:#000000;fill-opacity:1;fill-rule:nonzero;stroke:none" />
    </g>
    <g
       id="g32"
       aria-label="y[m]"
       transform="matrix(0,-1.3333333,1.3333333,0,21.949333,114.69733)">
      <path
         id="path33"
         d="m 4.8384297,-3.7969609 c 0.046875,-0.140625 0.046875,-0.1523438 0.046875,-0.2226563 0,-0.1875 -0.140625,-0.2695312 -0.2929688,-0.2695312 -0.1054687,0 -0.2578125,0.058594 -0.3515625,0.1992187 -0.023437,0.058594 -0.09375,0.3632813 -0.140625,0.5390625 -0.070312,0.2578125 -0.140625,0.5273438 -0.1992187,0.796875 l -0.4453125,1.79296876 c -0.035156,0.15234375 -0.46875,0.85546875 -1.125,0.85546875 -0.5039063,0 -0.6210938,-0.4453125 -0.6210938,-0.80859375 0,-0.45703126 0.1757813,-1.07812496 0.515625,-1.95703126 0.1523438,-0.4101562 0.1992188,-0.515625 0.1992188,-0.7148437 0,-0.4453125 -0.328125,-0.8203125 -0.8203125,-0.8203125 -0.94921876,0 -1.31250001,1.453125 -1.31250001,1.5351562 0,0.1054688 0.09375,0.1054688 0.1171875,0.1054688 0.09375,0 0.10546875,-0.023437 0.15234375,-0.1875 0.26953125,-0.9375 0.66796876,-1.2304688 1.00781246,-1.2304688 0.082031,0 0.2578125,0 0.2578125,0.3164063 0,0.2460937 -0.1054687,0.515625 -0.1757812,0.703125 -0.3984375,1.0546875 -0.5742188,1.6171875 -0.5742188,2.0859375 0,0.89062496 0.6210938,1.18359371 1.21875,1.18359371 0.3867188,0 0.7265625,-0.1640625 0.9960938,-0.4453125 -0.1289063,0.515625 -0.2460938,1.0078125 -0.6445313,1.53515629 -0.2578125,0.3398437 -0.6328125,0.6328125 -1.0898437,0.6328125 -0.140625,0 -0.59765626,-0.035156 -0.76171876,-0.421875 0.1640625,0 0.29296876,0 0.43359376,-0.1171875 0.09375,-0.09375 0.1992187,-0.2226563 0.1992187,-0.41015629 0,-0.31640625 -0.2695312,-0.3515625 -0.375,-0.3515625 -0.22265621,0 -0.55078121,0.1640625 -0.55078121,0.64453129 0,0.5039062 0.43359375,0.8671875 1.05468751,0.8671875 1.0195312,0 2.0507812,-0.9023438 2.3320312,-2.02734379 z m 0,0"
         style="fill:#000000;fill-opacity:1;fill-rule:nonzero;stroke:none" />
      <path
         id="path34"
         d="M 11.105031,2.4960078 V 2.0975703 h -0.972656 v -9.1757812 h 0.972656 V -7.4766484 H 9.7339375 v 9.9726562 z m 1.327149,-5.9179687 v 2.66015621 c 0,0.45703125 -0.117188,0.45703125 -0.785157,0.45703125 V -8.59375e-5 c 0.351563,-0.0117187525 0.855469,-0.0351562525 1.125,-0.0351562525 0.257813,0 0.785157,0.0234375 1.113282,0.0351562525 V -0.30477344 c -0.65625,0 -0.773438,0 -0.773438,-0.45703125 V -2.5899297 c 0,-1.03125 0.714844,-1.59375 1.347656,-1.59375 0.621094,0 0.738282,0.5390625 0.738282,1.1015625 v 2.32031251 c 0,0.45703125 -0.117188,0.45703125 -0.773438,0.45703125 V -8.59375e-5 c 0.339844,-0.0117187525 0.855469,-0.0351562525 1.125,-0.0351562525 0.257813,0 0.773438,0.0234375 1.113281,0.0351562525 V -0.30477344 c -0.667968,0 -0.785156,0 -0.785156,-0.45703125 V -2.5899297 c 0,-1.03125 0.714844,-1.59375 1.347656,-1.59375 0.632813,0 0.738282,0.5390625 0.738282,1.1015625 v 2.32031251 c 0,0.45703125 -0.105469,0.45703125 -0.773438,0.45703125 V -8.59375e-5 c 0.351563,-0.0117187525 0.855469,-0.0351562525 1.125,-0.0351562525 0.257813,0 0.773438,0.0234375 1.113281,0.0351562525 V -0.30477344 c -0.515625,0 -0.761718,0 -0.773437,-0.3046875 V -2.5078984 c 0,-0.8554688 0,-1.171875 -0.316406,-1.5234375 -0.128907,-0.1757813 -0.46875,-0.375 -1.042969,-0.375 -0.832031,0 -1.277344,0.5976562 -1.441406,0.984375 -0.140625,-0.8671875 -0.878907,-0.984375 -1.324219,-0.984375 -0.726563,0 -1.195313,0.4335937 -1.476563,1.0546875 v -1.0546875 l -1.40625,0.1171875 v 0.3046875 c 0.703125,0 0.785157,0.070312 0.785157,0.5625 z m 8.783203,-4.0546875 h -1.359375 v 0.3984375 h 0.960937 v 9.1757812 h -0.960937 v 0.3984375 h 1.359375 z m 0,0"
         style="fill:#000000;fill-opacity:1;fill-rule:nonzero;stroke:none" />
    </g>
    <path
       id="path35"
       d="m -19.6876,97.35637 h 46.4054 v 27.69194 h -46.4054 z"
       style="fill:#ffffff;fill-opacity:1;fill-rule:nonzero;stroke:#000000;stroke-width:0.3985;stroke-linecap:butt;stroke-linejoin:miter;stroke-miterlimit:10;stroke-dasharray:none;stroke-opacity:1"
       transform="matrix(1.3333333,0,0,-1.3333333,82.572,183.26133)" />
    <path
       id="path36"
       d="m 0,0 h 8.50412 8.50414"
       style="fill:none;stroke:#ff0000;stroke-width:1.49442;stroke-linecap:butt;stroke-linejoin:miter;stroke-miterlimit:10;stroke-dasharray:none;stroke-opacity:1"
       transform="matrix(1.3333333,0,0,-1.3333333,61.304,25.701333)" />
    <g
       id="g36"
       aria-label="y&#10;box"
       transform="matrix(1.3333333,0,0,1.3333333,87.634667,27.565333)">
      <path
         id="path37"
         d="m 4.8384531,-3.7960703 c 0.046875,-0.140625 0.046875,-0.1523438 0.046875,-0.2226563 0,-0.1875 -0.140625,-0.2695312 -0.2929687,-0.2695312 -0.1054688,0 -0.2578125,0.058594 -0.3515625,0.1992187 -0.023437,0.058594 -0.09375,0.3632813 -0.140625,0.5390625 -0.070312,0.2578125 -0.140625,0.5273438 -0.1992188,0.796875 l -0.4453125,1.79296879 c -0.035156,0.15234375 -0.46875,0.85546875 -1.125,0.85546875 -0.5039062,0 -0.6210937,-0.4453125 -0.6210937,-0.80859375 0,-0.45703129 0.1757812,-1.07812499 0.515625,-1.95703129 0.1523437,-0.4101562 0.1992187,-0.515625 0.1992187,-0.7148437 0,-0.4453125 -0.328125,-0.8203125 -0.8203125,-0.8203125 -0.94921872,0 -1.31249997,1.453125 -1.31249997,1.5351562 0,0.1054688 0.09375,0.1054688 0.1171875,0.1054688 0.09375,0 0.10546875,-0.023437 0.15234375,-0.1875 0.26953125,-0.9375 0.66796872,-1.2304688 1.00781252,-1.2304688 0.082031,0 0.2578125,0 0.2578125,0.3164063 0,0.2460937 -0.1054688,0.515625 -0.1757813,0.703125 -0.3984375,1.0546875 -0.5742187,1.6171875 -0.5742187,2.0859375 0,0.89062499 0.6210937,1.18359374 1.21875,1.18359374 0.3867187,0 0.7265625,-0.1640625 0.9960937,-0.4453125 -0.1289062,0.515625 -0.2460937,1.0078125 -0.6445312,1.53515626 -0.2578125,0.3398437 -0.6328125,0.6328125 -1.0898438,0.6328125 -0.140625,0 -0.59765622,-0.035156 -0.76171872,-0.421875 0.1640625,0 0.29296872,0 0.43359372,-0.1171875 0.09375,-0.09375 0.1992188,-0.2226563 0.1992188,-0.41015626 0,-0.31640625 -0.2695313,-0.3515625 -0.375,-0.3515625 -0.22265627,0 -0.55078127,0.1640625 -0.55078127,0.64453126 0,0.5039062 0.43359375,0.8671875 1.05468747,0.8671875 1.0195313,0 2.0507813,-0.9023438 2.3320313,-2.02734376 z m 0,0"
         style="fill:#000000;fill-opacity:1;fill-rule:nonzero;stroke:none" />
      <path
         id="path38"
         d="m 6.2681406,-3.3448984 -1.0429687,0.082031 v 0.2460938 c 0.4804687,0 0.5273437,0.058594 0.5273437,0.4101562 v 4.1015625 h 0.234375 l 0.2460938,-0.421875 c 0.2578125,0.3398438 0.6445312,0.4921875 1.0195312,0.4921875 0.9140625,0 1.6992188,-0.69140624 1.6992188,-1.58203124 0,-0.84375 -0.7148438,-1.55859376 -1.6289063,-1.55859376 -0.4101562,0 -0.796875,0.1640625 -1.0546875,0.4101563 z m 0.035156,2.50781246 c 0.1875,-0.32812496 0.5742187,-0.55078126 0.984375,-0.55078126 0.3984375,0 0.6679687,0.2226563 0.8085937,0.43359376 0.140625,0.19921875 0.2226563,0.48046875 0.2226563,0.9375 0,0.1640625 0,0.6796875 -0.28125,1.0078125 -0.28125,0.31640624 -0.6210938,0.37500004 -0.8203125,0.37500004 -0.5625,0 -0.84375,-0.43359379 -0.9140625,-0.58593754 z m 6.8876954,0.84375 c 0,-0.8671875 -0.75,-1.61718746 -1.710937,-1.61718746 -0.960938,0 -1.7109381,0.74999996 -1.7109381,1.61718746 0,0.8671875 0.7734381,1.55859374 1.7109381,1.55859374 0.9375,0 1.710937,-0.69140624 1.710937,-1.55859374 z M 11.480055,1.3426016 c -0.257813,0 -0.632813,-0.082031 -0.867188,-0.42187504 -0.1875,-0.29296875 -0.210937,-0.65625 -0.210937,-0.97265625 0,-0.3046875 0.01172,-0.71484375 0.257812,-1.00781251 0.175781,-0.2109375 0.46875,-0.3632812 0.820313,-0.3632812 0.410156,0 0.703125,0.1992187 0.855468,0.4101562 0.199219,0.28125001 0.222657,0.62109376 0.222657,0.96093751 0,0.328125 -0.02344,0.703125 -0.222657,0.984375 -0.1875,0.26953129 -0.515625,0.41015629 -0.855468,0.41015629 z m 4.142578,-1.40625004 c -0.01172,-0.01171875 -0.05859,-0.0703125 -0.05859,-0.0703125 0,-0.0234375 0.457031,-0.515625 0.527344,-0.5859375 0.234375,-0.26953125 0.480469,-0.52734376 1.03125,-0.53906246 v -0.2460938 c -0.1875,0.011719 -0.398438,0.023437 -0.585938,0.023437 -0.210937,0 -0.480468,-0.011719 -0.691406,-0.023437 v 0.2460938 c 0.117188,0.023437 0.140625,0.09375 0.140625,0.1640625 0,0.011719 0,0.11718746 -0.105469,0.23437496 l -0.480468,0.55078125 -0.585938,-0.66796875 c -0.07031,-0.0703125 -0.07031,-0.10546876 -0.07031,-0.14062496 0,-0.09375 0.09375,-0.140625 0.1875,-0.140625 v -0.2460938 c -0.257813,0.011719 -0.527344,0.023437 -0.785157,0.023437 -0.210937,0 -0.46875,-0.011719 -0.679687,-0.023437 v 0.2460938 c 0.328125,0 0.503906,0 0.691406,0.2109375 l 0.867188,1.00781246 c 0.01172,0 0.05859,0.05859375 0.05859,0.05859375 0,0.0234375 -0.527343,0.59765625 -0.597656,0.6796875 C 14.228105,0.96760156 13.99373,1.2254141 13.43123,1.2488516 v 0.2460937 c 0.210937,-0.011719 0.363281,-0.023437 0.585937,-0.023437 0.210938,0 0.492188,0 0.691406,0.023437 V 1.2488516 c -0.08203,-0.023437 -0.140625,-0.070312 -0.140625,-0.1640625 0,-0.12890629 0.08203,-0.22265629 0.199219,-0.33984379 l 0.480469,-0.5390625 0.609375,0.69140625 c 0.128906,0.14062504 0.128906,0.16406254 0.128906,0.19921874 0,0.140625 -0.152344,0.1523438 -0.1875,0.1523438 v 0.2460937 c 0.07031,-0.011719 0.5625,-0.023437 0.785156,-0.023437 0.222657,0 0.445313,0 0.679688,0.023437 V 1.2488516 c -0.46875,0 -0.527344,-0.046875 -0.691406,-0.2226563 z m 0,0"
         style="fill:#000000;fill-opacity:1;fill-rule:nonzero;stroke:none" />
    </g>
    <path
       id="path39"
       d="m 0,0 h 8.50412 8.50414"
       style="fill:none;stroke:#000000;stroke-width:1.49442;stroke-linecap:butt;stroke-linejoin:miter;stroke-miterlimit:10;stroke-dasharray:2.98883, 2.98883;stroke-dashoffset:0;stroke-opacity:1"
       transform="matrix(1.3333333,0,0,-1.3333333,61.304,41.506667)" />
    <g
       id="g39"
       aria-label="y&#10;ref&#10;box"
       transform="matrix(1.3333333,0,0,1.3333333,87.634667,46.149333)">
      <path
         id="path40"
         d="m 4.8384531,-3.7975469 c 0.046875,-0.140625 0.046875,-0.1523437 0.046875,-0.2226562 0,-0.1875 -0.140625,-0.2695313 -0.2929687,-0.2695313 -0.1054688,0 -0.2578125,0.058594 -0.3515625,0.1992188 -0.023437,0.058594 -0.09375,0.3632812 -0.140625,0.5390625 -0.070312,0.2578125 -0.140625,0.5273437 -0.1992188,0.796875 l -0.4453125,1.79296873 c -0.035156,0.15234375 -0.46875,0.85546875 -1.125,0.85546875 -0.5039062,0 -0.6210937,-0.4453125 -0.6210937,-0.80859375 0,-0.45703123 0.1757812,-1.07812503 0.515625,-1.95703123 0.1523437,-0.4101563 0.1992187,-0.515625 0.1992187,-0.7148438 0,-0.4453125 -0.328125,-0.8203125 -0.8203125,-0.8203125 -0.94921872,0 -1.31249997,1.453125 -1.31249997,1.5351563 0,0.1054687 0.09375,0.1054687 0.1171875,0.1054687 0.09375,0 0.10546875,-0.023437 0.15234375,-0.1875 0.26953125,-0.9375 0.66796872,-1.2304687 1.00781252,-1.2304687 0.082031,0 0.2578125,0 0.2578125,0.3164062 0,0.2460938 -0.1054688,0.515625 -0.1757813,0.703125 -0.3984375,1.0546875 -0.5742187,1.6171875 -0.5742187,2.0859375 0,0.89062503 0.6210937,1.18359378 1.21875,1.18359378 0.3867187,0 0.7265625,-0.1640625 0.9960937,-0.4453125 -0.1289062,0.515625 -0.2460937,1.0078125 -0.6445312,1.53515622 -0.2578125,0.3398438 -0.6328125,0.6328125 -1.0898438,0.6328125 -0.140625,0 -0.59765622,-0.035156 -0.76171872,-0.421875 0.1640625,0 0.29296872,0 0.43359372,-0.1171875 0.09375,-0.09375 0.1992188,-0.2226562 0.1992188,-0.41015622 0,-0.31640625 -0.2695313,-0.3515625 -0.375,-0.3515625 -0.22265627,0 -0.55078127,0.1640625 -0.55078127,0.64453122 0,0.5039063 0.43359375,0.8671875 1.05468747,0.8671875 1.0195313,0 2.0507813,-0.9023437 2.3320313,-2.02734372 z m 0,0"
         style="fill:#000000;fill-opacity:1;fill-rule:nonzero;stroke:none" />
      <path
         id="path41"
         d="m 6.6255625,-5.2096562 c 0,-0.5859375 0.28125,-1.2890625 0.9375,-1.2890625 -0.058594,0.046875 -0.1171875,0.140625 -0.1171875,0.2578125 0,0.2226562 0.1757813,0.3164062 0.3164063,0.3164062 0.1640625,0 0.3164062,-0.1054687 0.3164062,-0.3164062 0,-0.2460938 -0.2226562,-0.4453125 -0.5507812,-0.4453125 -0.3515625,0 -0.7265625,0.2109375 -0.9375,0.7382812 h -0.011719 v -0.7382812 l -0.9960937,0.070312 v 0.2578125 c 0.46875,0 0.5273437,0.046875 0.5273437,0.3867187 V -4.166688 C 6.1099375,-3.862 6.039625,-3.862 5.5825938,-3.862 v 0.2460938 c 0.035156,0 0.515625,-0.023437 0.796875,-0.023437 0.3046875,0 0.609375,0.011719 0.9023437,0.023437 V -3.862 h -0.140625 c -0.515625,0 -0.515625,-0.082031 -0.515625,-0.3164062 z m 4.7988285,0 c 0.140625,0 0.1875,0 0.1875,-0.1523438 0,-0.609375 -0.339844,-1.359375 -1.371094,-1.359375 -0.9140626,0 -1.6171876,0.7265625 -1.6171876,1.5820313 0,0.8789062 0.7734375,1.59375 1.6992186,1.59375 0.949219,0 1.289063,-0.75 1.289063,-0.9023438 0,-0.035156 -0.01172,-0.1054687 -0.117188,-0.1054687 -0.08203,0 -0.105469,0.046875 -0.117187,0.1171875 -0.222657,0.5625 -0.75,0.6679687 -0.996094,0.6679687 -0.328125,0 -0.6445314,-0.1523437 -0.8554689,-0.4101562 -0.2578125,-0.328125 -0.2695312,-0.75 -0.2695312,-1.03125 z M 9.2681406,-5.3854375 c 0.070312,-0.984375 0.703125,-1.1484375 0.9726564,-1.1484375 0.855469,0 0.878906,0.9726563 0.890625,1.1484375 z m 4.0693364,-0.984375 h 0.867187 V -6.6159062 H 13.30232 v -0.7851563 c 0,-0.6328125 0.375,-0.9257812 0.679688,-0.9257812 0.05859,0 0.128906,0.011719 0.199219,0.035156 -0.09375,0.058594 -0.152344,0.1640625 -0.152344,0.28125 0,0.1875 0.128906,0.3164063 0.316406,0.3164063 0.199219,0 0.328125,-0.1289063 0.328125,-0.3164063 0,-0.3046875 -0.304687,-0.515625 -0.679687,-0.515625 -0.5625,0 -1.183594,0.3867188 -1.183594,1.125 v 0.7851563 h -0.597656 v 0.2460937 h 0.597656 v 2.203125 C 12.810133,-3.862 12.73982,-3.862 12.282789,-3.862 v 0.2460938 c 0.03516,0 0.515625,-0.023437 0.796875,-0.023437 0.304688,0 0.609375,0.011719 0.914063,0.023437 V -3.862 h -0.140625 c -0.515625,0 -0.515625,-0.082031 -0.515625,-0.3164062 z m -7.0693364,4.3505859 -1.0429687,0.082031 v 0.2460937 c 0.4804687,0 0.5273437,0.058594 0.5273437,0.4101563 v 4.1015625 h 0.234375 l 0.2460938,-0.421875 c 0.2578125,0.3398437 0.6445312,0.4921875 1.0195312,0.4921875 0.9140625,0 1.6992188,-0.6914063 1.6992188,-1.5820313 0,-0.84374996 -0.7148438,-1.55859371 -1.6289063,-1.55859371 -0.4101562,0 -0.796875,0.1640625 -1.0546875,0.41015625 z m 0.035156,2.50781254 c 0.1875,-0.328125 0.5742187,-0.55078125 0.984375,-0.55078125 0.3984375,0 0.6679687,0.22265625 0.8085937,0.43359375 0.140625,0.19921875 0.2226563,0.48046875 0.2226563,0.93749996 0,0.1640625 0,0.6796875 -0.28125,1.0078125 -0.28125,0.3164063 -0.6210938,0.375 -0.8203125,0.375 -0.5625,0 -0.84375,-0.4335937 -0.9140625,-0.5859375 z M 13.190992,1.3323359 c 0,-0.86718746 -0.75,-1.61718746 -1.710937,-1.61718746 -0.960938,0 -1.7109378,0.75 -1.7109378,1.61718746 0,0.8671875 0.7734378,1.5585938 1.7109378,1.5585938 0.9375,0 1.710937,-0.6914063 1.710937,-1.5585938 z m -1.710937,1.3359375 c -0.257813,0 -0.632813,-0.082031 -0.867188,-0.421875 -0.1875,-0.2929687 -0.210937,-0.65625 -0.210937,-0.9726562 0,-0.30468751 0.01172,-0.71484376 0.257812,-1.00781251 0.175781,-0.2109375 0.46875,-0.36328125 0.820313,-0.36328125 0.410156,0 0.703125,0.19921875 0.855468,0.41015625 0.199219,0.28125 0.222657,0.62109375 0.222657,0.96093751 0,0.328125 -0.02344,0.703125 -0.222657,0.984375 -0.1875,0.2695312 -0.515625,0.4101562 -0.855468,0.4101562 z m 4.142578,-1.40625 c -0.01172,-0.011719 -0.05859,-0.070312 -0.05859,-0.070312 0,-0.023437 0.457031,-0.51562496 0.527344,-0.58593746 0.234375,-0.26953125 0.480469,-0.52734375 1.03125,-0.5390625 v -0.24609375 c -0.1875,0.0117188 -0.398438,0.0234375 -0.585938,0.0234375 -0.210937,0 -0.480468,-0.0117188 -0.691406,-0.0234375 v 0.24609375 c 0.117188,0.0234375 0.140625,0.09375 0.140625,0.1640625 0,0.0117188 0,0.1171875 -0.105469,0.234375 L 15.399977,1.0159297 14.814039,0.34796094 c -0.07031,-0.0703125 -0.07031,-0.10546875 -0.07031,-0.140625 0,-0.09375 0.09375,-0.140625 0.1875,-0.140625 v -0.24609375 c -0.257813,0.0117188 -0.527344,0.0234375 -0.785157,0.0234375 -0.210937,0 -0.46875,-0.0117188 -0.679687,-0.0234375 v 0.24609375 c 0.328125,0 0.503906,0 0.691406,0.2109375 l 0.867188,1.00781246 c 0.01172,0 0.05859,0.058594 0.05859,0.058594 0,0.023437 -0.527343,0.5976562 -0.597656,0.6796875 -0.257812,0.2695312 -0.492187,0.5273437 -1.054687,0.5507812 v 0.2460938 c 0.210937,-0.011719 0.363281,-0.023437 0.585937,-0.023437 0.210938,0 0.492188,0 0.691406,0.023437 v -0.246094 c -0.08203,-0.023437 -0.140625,-0.070312 -0.140625,-0.1640625 0,-0.1289062 0.08203,-0.2226562 0.199219,-0.3398437 l 0.480469,-0.5390625 0.609375,0.6914062 c 0.128906,0.140625 0.128906,0.1640625 0.128906,0.1992188 0,0.140625 -0.152344,0.1523437 -0.1875,0.1523437 v 0.2460938 c 0.07031,-0.011719 0.5625,-0.023437 0.785156,-0.023437 0.222657,0 0.445313,0 0.679688,0.023437 V 2.5745234 c -0.46875,0 -0.527344,-0.046875 -0.691406,-0.2226562 z m 0,0"
         style="fill:#000000;fill-opacity:1;fill-rule:nonzero;stroke:none" />
    </g>
  </g>
</svg>
